<?xml version="1.0" encoding="UTF-8"?>
<svg width="123px" height="15px" viewBox="0 0 123 15" version="1.1" xmlns="http://www.w3.org/2000/svg" xmlns:xlink="http://www.w3.org/1999/xlink">
    <!-- Generator: Sketch 50.2 (55047) - http://www.bohemiancoding.com/sketch -->
    <title>logo</title>
    <desc>Created with Sketch.</desc>
    <defs></defs>
    <g id="Symbols" stroke="none" stroke-width="1" fill="none" fill-rule="evenodd">
        <g id="header" transform="translate(-93.000000, -32.000000)" fill="#FFFFFF">
            <g id="nav">
                <g transform="translate(93.000000, 32.000000)">
                    <path d="M7.326,11.516 C8.7060069,11.516 9.83399562,10.9700055 10.71,9.878 L12.51,11.732 C11.0819929,13.340008 9.39900969,14.144 7.461,14.144 C5.52299031,14.144 3.92700627,13.5320061 2.673,12.308 C1.41899373,11.0839939 0.792,9.53900933 0.792,7.673 C0.792,5.80699067 1.43099361,4.25000624 2.709,3.002 C3.98700639,1.75399376 5.54999076,1.13 7.398,1.13 C9.46201032,1.13 11.189993,1.91599214 12.582,3.488 L10.836,5.468 C9.94799556,4.36399448 8.8440066,3.812 7.524,3.812 C6.46799472,3.812 5.56500375,4.15699655 4.815,4.847 C4.06499625,5.53700345 3.69,6.46699415 3.69,7.637 C3.69,8.80700585 4.04399646,9.74599646 4.752,10.454 C5.46000354,11.1620035 6.31799496,11.516 7.326,11.516 Z M22.572,14 L20.034,14 L20.034,12.83 C19.3379965,13.7060044 18.4770051,14.144 17.451,14.144 C16.4249949,14.144 15.5640035,13.847003 14.868,13.253 C14.1719965,12.658997 13.824,11.867005 13.824,10.877 C13.824,9.88699505 14.1839964,9.14600246 14.904,8.654 C15.6240036,8.16199754 16.6079938,7.916 17.856,7.916 L19.872,7.916 L19.872,7.862 C19.872,6.82999484 19.3260055,6.314 18.234,6.314 C17.7659977,6.314 17.2710026,6.40699907 16.749,6.593 C16.2269974,6.77900093 15.7860018,7.00999862 15.426,7.286 L14.22,5.54 C15.4920064,4.61599538 16.9439918,4.154 18.576,4.154 C19.7520059,4.154 20.7119963,4.44799706 21.456,5.036 C22.2000037,5.62400294 22.572,6.55399364 22.572,7.826 L22.572,14 Z M19.854,10.31 L19.854,9.842 L18.162,9.842 C17.0819946,9.842 16.542,10.1779966 16.542,10.85 C16.542,11.1980017 16.6709987,11.4649991 16.929,11.651 C17.1870013,11.8370009 17.5559976,11.93 18.036,11.93 C18.5160024,11.93 18.9389982,11.7830015 19.305,11.489 C19.6710018,11.1949985 19.854,10.8020025 19.854,10.31 Z M27.738,14 L25.038,14 L25.038,0.644 L27.738,0.644 L27.738,14 Z M36.54,9.536 L36.54,4.316 L39.258,4.316 L39.258,14 L36.54,14 L36.54,12.722 C35.8679966,13.6700047 35.0010053,14.144 33.939,14.144 C32.8769947,14.144 31.9860036,13.8110033 31.266,13.145 C30.5459964,12.4789967 30.186,11.4920065 30.186,10.184 L30.186,4.316 L32.904,4.316 L32.904,9.59 C32.904,11.0780074 33.4499945,11.822 34.542,11.822 C35.0820027,11.822 35.549998,11.627002 35.946,11.237 C36.342002,10.8469981 36.54,10.2800037 36.54,9.536 Z M50.706,8.78 L50.706,14 L47.988,14 L47.988,8.708 C47.988,7.93999616 47.8710012,7.3760018 47.637,7.016 C47.4029988,6.6559982 47.0250026,6.476 46.503,6.476 C45.9809974,6.476 45.519002,6.67099805 45.117,7.061 C44.714998,7.45100195 44.514,8.02399622 44.514,8.78 L44.514,14 L41.814,14 L41.814,4.316 L44.514,4.316 L44.514,5.414 C45.2580037,4.5739958 46.1099952,4.154 47.07,4.154 C47.6820031,4.154 48.2369975,4.3339982 48.735,4.694 C49.2330025,5.0540018 49.6079987,5.49199742 49.86,6.008 C50.2320019,5.41999706 50.7329969,4.96400162 51.363,4.64 C51.9930032,4.31599838 52.6259968,4.154 53.262,4.154 C54.4020057,4.154 55.3199965,4.49299661 56.016,5.171 C56.7120035,5.84900339 57.06,6.82999358 57.06,8.114 L57.06,14 L54.342,14 L54.342,8.708 C54.342,7.21999256 53.7960055,6.476 52.704,6.476 C52.1639973,6.476 51.696002,6.67099805 51.3,7.061 C50.903998,7.45100195 50.706,8.02399622 50.706,8.78 Z M70.038,14 L64.53,14 L64.53,1.418 L69.426,1.418 C70.2780043,1.418 71.0129969,1.51999898 71.631,1.724 C72.2490031,1.92800102 72.7139984,2.20399826 73.026,2.552 C73.5900028,3.20000324 73.872,3.93199592 73.872,4.748 C73.872,5.73200492 73.5540032,6.4639976 72.918,6.944 C72.7019989,7.11200084 72.5520004,7.21699979 72.468,7.259 C72.3839996,7.30100021 72.2340011,7.36999952 72.018,7.466 C72.7980039,7.63400084 73.4189977,7.98499733 73.881,8.519 C74.3430023,9.05300267 74.574,9.71599604 74.574,10.508 C74.574,11.3840044 74.274003,12.1579966 73.674,12.83 C72.9779965,13.6100039 71.7660086,14 70.038,14 Z M67.338,6.512 L68.67,6.512 C69.4500039,6.512 70.0289981,6.42800084 70.407,6.26 C70.7850019,6.09199916 70.974,5.72900279 70.974,5.171 C70.974,4.61299721 70.8000017,4.2440009 70.452,4.064 C70.1039983,3.8839991 69.5160041,3.794 68.688,3.794 L67.338,3.794 L67.338,6.512 Z M67.338,11.624 L69.264,11.624 C70.068004,11.624 70.670998,11.525001 71.073,11.327 C71.475002,11.128999 71.676,10.7390029 71.676,10.157 C71.676,9.57499709 71.4630021,9.19100093 71.037,9.005 C70.6109979,8.81899907 69.9300047,8.726 68.994,8.726 L67.338,8.726 L67.338,11.624 Z M84.888,14 L82.35,14 L82.35,12.83 C81.6539965,13.7060044 80.7930051,14.144 79.767,14.144 C78.7409949,14.144 77.8800035,13.847003 77.184,13.253 C76.4879965,12.658997 76.14,11.867005 76.14,10.877 C76.14,9.88699505 76.4999964,9.14600246 77.22,8.654 C77.9400036,8.16199754 78.9239938,7.916 80.172,7.916 L82.188,7.916 L82.188,7.862 C82.188,6.82999484 81.6420055,6.314 80.55,6.314 C80.0819977,6.314 79.5870026,6.40699907 79.065,6.593 C78.5429974,6.77900093 78.1020018,7.00999862 77.742,7.286 L76.536,5.54 C77.8080064,4.61599538 79.2599918,4.154 80.892,4.154 C82.0680059,4.154 83.0279963,4.44799706 83.772,5.036 C84.5160037,5.62400294 84.888,6.55399364 84.888,7.826 L84.888,14 Z M82.17,10.31 L82.17,9.842 L80.478,9.842 C79.3979946,9.842 78.858,10.1779966 78.858,10.85 C78.858,11.1980017 78.9869987,11.4649991 79.245,11.651 C79.5030013,11.8370009 79.8719976,11.93 80.352,11.93 C80.8320024,11.93 81.2549982,11.7830015 81.621,11.489 C81.9870018,11.1949985 82.17,10.8020025 82.17,10.31 Z M90.054,14 L87.354,14 L87.354,4.316 L90.054,4.316 L90.054,14 Z M87.57,3.092 C87.2699985,2.77999844 87.12,2.40200222 87.12,1.958 C87.12,1.51399778 87.2729985,1.13900153 87.579,0.833 C87.8850015,0.52699847 88.2599978,0.374 88.704,0.374 C89.1480022,0.374 89.5229985,0.52699847 89.829,0.833 C90.1350015,1.13900153 90.288,1.51399778 90.288,1.958 C90.288,2.40200222 90.1350015,2.77699847 89.829,3.083 C89.5229985,3.38900153 89.1480022,3.542 88.704,3.542 C88.2599978,3.542 87.8820016,3.3920015 87.57,3.092 Z M95.31,8.6 L95.31,14 L92.61,14 L92.61,4.316 L95.31,4.316 L95.31,5.396 C96.1260041,4.56799586 97.0439949,4.154 98.064,4.154 C99.0840051,4.154 99.9389966,4.5139964 100.629,5.234 C101.319003,5.9540036 101.664,6.913994 101.664,8.114 L101.664,14 L98.964,14 L98.964,8.528 C98.964,7.03999256 98.4180055,6.296 97.326,6.296 C96.7859973,6.296 96.315002,6.49099805 95.913,6.881 C95.510998,7.27100195 95.31,7.84399622 95.31,8.6 Z M112.5,12.596 C111.407995,13.6280052 110.127007,14.144 108.657,14.144 C107.186993,14.144 105.972005,13.6910045 105.012,12.785 C104.051995,11.8789955 103.572,10.6640076 103.572,9.14 C103.572,7.61599238 104.060995,6.4040045 105.039,5.504 C106.017005,4.6039955 107.171993,4.154 108.504,4.154 C109.836007,4.154 110.966995,4.55599598 111.897,5.36 C112.827005,6.16400402 113.292,7.26799298 113.292,8.672 L113.292,10.112 L106.236,10.112 C106.32,10.6400026 106.595998,11.0719983 107.064,11.408 C107.532002,11.7440017 108.059997,11.912 108.648,11.912 C109.596005,11.912 110.375997,11.5940032 110.988,10.958 L112.5,12.596 Z M110.556,8.186 C110.496,7.60999712 110.280002,7.16600156 109.908,6.854 C109.535998,6.54199844 109.083003,6.386 108.549,6.386 C108.014997,6.386 107.526002,6.54799838 107.082,6.872 C106.637998,7.19600162 106.38,7.63399724 106.308,8.186 L110.556,8.186 Z M122.526,10.994 C122.526,11.9420047 122.175004,12.7039971 121.473,13.28 C120.770996,13.8560029 119.880005,14.144 118.8,14.144 C118.079996,14.144 117.330004,14.0150013 116.55,13.757 C115.769996,13.4989987 115.068003,13.1180025 114.444,12.614 L115.632,10.922 C116.640005,11.7020039 117.713994,12.092 118.854,12.092 C119.202002,12.092 119.477999,12.0230007 119.682,11.885 C119.886001,11.7469993 119.988,11.5640011 119.988,11.336 C119.988,11.1079989 119.847001,10.898001 119.565,10.706 C119.282999,10.513999 118.875003,10.3340008 118.341,10.166 C117.806997,9.99799916 117.399001,9.8540006 117.117,9.734 C116.834999,9.6139994 116.514002,9.44000114 116.154,9.212 C115.421996,8.75599772 115.056,8.08100447 115.056,7.187 C115.056,6.29299553 115.415996,5.56400282 116.136,5 C116.856004,4.43599718 117.785994,4.154 118.926,4.154 C120.066006,4.154 121.205994,4.53799616 122.346,5.306 L121.338,7.106 C120.497996,6.52999712 119.661004,6.242 118.827,6.242 C117.992996,6.242 117.576,6.46999772 117.576,6.926 C117.576,7.17800126 117.707999,7.37599928 117.972,7.52 C118.236001,7.66400072 118.673997,7.83199904 119.286,8.024 C119.898003,8.21600096 120.332999,8.36299949 120.591,8.465 C120.849001,8.56700051 121.157998,8.72599892 121.518,8.942 C122.190003,9.35000204 122.526,10.0339952 122.526,10.994 Z" id="logo"></path>
                </g>
            </g>
        </g>
    </g>
</svg>